<svg width="25" height="24" viewBox="0 0 25 24" fill="none" xmlns="http://www.w3.org/2000/svg">
<path opacity="0.5" d="M20.949 16.3298C20.669 17.0798 20.079 17.6498 19.309 17.9098C18.229 18.2698 17.119 18.5398 15.999 18.7298C15.889 18.7498 15.779 18.7698 15.669 18.7798C15.489 18.8098 15.309 18.8298 15.129 18.8498C14.909 18.8798 14.679 18.8998 14.449 18.9198C13.819 18.9698 13.199 18.9998 12.569 18.9998C11.929 18.9998 11.289 18.9698 10.659 18.9098C10.389 18.8898 10.129 18.8598 9.86903 18.8198C9.71903 18.7998 9.56903 18.7798 9.42903 18.7598C9.31903 18.7398 9.20903 18.7298 9.09903 18.7098C7.98903 18.5298 6.88903 18.2598 5.81903 17.8998C5.01903 17.6298 4.40903 17.0598 4.13903 16.3298C3.86903 15.6098 3.96903 14.7698 4.39903 14.0498L5.52903 12.1698C5.76903 11.7598 5.98903 10.9698 5.98903 10.4898V8.6298C5.98903 4.9998 8.93903 2.0498 12.569 2.0498C16.189 2.0498 19.139 4.9998 19.139 8.6298V10.4898C19.139 10.9698 19.359 11.7598 19.609 12.1698L20.739 14.0498C21.149 14.7498 21.229 15.5698 20.949 16.3298Z" fill="#252525"/>
<path d="M12.55 10.7601C12.13 10.7601 11.79 10.4201 11.79 10.0001V6.90014C11.79 6.48014 12.13 6.14014 12.55 6.14014C12.97 6.14014 13.31 6.48014 13.31 6.90014V10.0001C13.3 10.4201 12.96 10.7601 12.55 10.7601Z" fill="#252525"/>
<path d="M15.3795 20.01C14.9595 21.17 13.8495 22 12.5495 22C11.7595 22 10.9795 21.68 10.4295 21.11C10.1095 20.81 9.86949 20.41 9.72949 20C9.85949 20.02 9.98949 20.03 10.1295 20.05C10.3595 20.08 10.5995 20.11 10.8395 20.13C11.4095 20.18 11.9895 20.21 12.5695 20.21C13.1395 20.21 13.7095 20.18 14.2695 20.13C14.4795 20.11 14.6895 20.1 14.8895 20.07C15.0495 20.05 15.2095 20.03 15.3795 20.01Z" fill="#252525"/>
</svg>
