<svg width="25" height="24" viewBox="0 0 25 24" fill="none" xmlns="http://www.w3.org/2000/svg">
<path opacity="0.5" d="M9.5498 2C6.9298 2 4.7998 4.13 4.7998 6.75C4.7998 9.32 6.8098 11.4 9.4298 11.49C9.5098 11.48 9.58981 11.48 9.64981 11.49C9.66981 11.49 9.6798 11.49 9.6998 11.49C9.7098 11.49 9.7098 11.49 9.7198 11.49C12.2798 11.4 14.2898 9.32 14.2998 6.75C14.2998 4.13 12.1698 2 9.5498 2Z" fill="#252525"/>
<path d="M14.6307 14.1499C11.8407 12.2899 7.29074 12.2899 4.48074 14.1499C3.21074 14.9999 2.51074 16.1499 2.51074 17.3799C2.51074 18.6099 3.21074 19.7499 4.47074 20.5899C5.87074 21.5299 7.71074 21.9999 9.55074 21.9999C11.3907 21.9999 13.2307 21.5299 14.6307 20.5899C15.8907 19.7399 16.5907 18.5999 16.5907 17.3599C16.5807 16.1299 15.8907 14.9899 14.6307 14.1499Z" fill="#252525"/>
<path opacity="0.5" d="M20.5392 7.3401C20.6992 9.2801 19.3192 10.9801 17.4092 11.2101C17.3992 11.2101 17.3992 11.2101 17.3892 11.2101H17.3592C17.2992 11.2101 17.2392 11.2101 17.1892 11.2301C16.2192 11.2801 15.3292 10.9701 14.6592 10.4001C15.6892 9.4801 16.2792 8.1001 16.1592 6.6001C16.0892 5.7901 15.8092 5.0501 15.3892 4.4201C15.7692 4.2301 16.2092 4.1101 16.6592 4.0701C18.6192 3.9001 20.3692 5.3601 20.5392 7.3401Z" fill="#252525"/>
<path d="M22.54 16.5899C22.46 17.5599 21.84 18.3999 20.8 18.9699C19.8 19.5199 18.54 19.7799 17.29 19.7499C18.01 19.0999 18.43 18.2899 18.51 17.4299C18.61 16.1899 18.02 14.9999 16.84 14.0499C16.17 13.5199 15.39 13.0999 14.54 12.7899C16.75 12.1499 19.53 12.5799 21.24 13.9599C22.16 14.6999 22.63 15.6299 22.54 16.5899Z" fill="#252525"/>
</svg>
