<svg width="19" height="19" viewBox="0 0 19 19" fill="none" xmlns="http://www.w3.org/2000/svg">
<g clip-path="url(#clip0_40_1176)">
<path d="M14.4629 12.212L13.4024 11.15L14.4629 10.0895C14.8136 9.74182 15.0922 9.32831 15.2827 8.87269C15.4732 8.41706 15.5718 7.9283 15.5729 7.43446C15.5739 6.94062 15.4775 6.45144 15.289 5.99498C15.1005 5.53853 14.8237 5.1238 14.4745 4.7746C14.1253 4.4254 13.7106 4.14862 13.2541 3.96013C12.7977 3.77165 12.3085 3.67518 11.8147 3.67626C11.3208 3.67734 10.8321 3.77595 10.3764 3.96643C9.92082 4.15692 9.5073 4.43552 9.15964 4.78624L8.09914 5.84749L7.03789 4.78699L8.09989 3.72649C9.08451 2.74187 10.4199 2.18872 11.8124 2.18872C13.2048 2.18872 14.5403 2.74187 15.5249 3.72649C16.5095 4.7111 17.0627 6.04653 17.0627 7.43899C17.0627 8.83145 16.5095 10.1669 15.5249 11.1515L14.4629 12.212ZM12.3419 14.333L11.2806 15.3935C10.296 16.3781 8.9606 16.9313 7.56814 16.9313C6.17568 16.9313 4.84026 16.3781 3.85564 15.3935C2.87102 14.4089 2.31787 13.0734 2.31787 11.681C2.31787 10.2885 2.87102 8.9531 3.85564 7.96849L4.91689 6.90799L5.97739 7.96999L4.91689 9.03049C4.56617 9.37815 4.28757 9.79167 4.09709 10.2473C3.9066 10.7029 3.80799 11.1917 3.80691 11.6855C3.80583 12.1794 3.9023 12.6685 4.09078 13.125C4.27927 13.5814 4.55605 13.9962 4.90525 14.3454C5.25445 14.6946 5.66918 14.9714 6.12563 15.1598C6.58209 15.3483 7.07127 15.4448 7.56511 15.4437C8.05895 15.4426 8.54771 15.344 9.00334 15.1535C9.45896 14.9631 9.87247 14.6845 10.2201 14.3337L11.2806 13.2732L12.3419 14.333ZM11.8109 6.37774L12.8721 7.43899L7.56889 12.7415L6.50764 11.681L11.8109 6.37774Z" fill="#212529"/>
</g>
<defs>
<clipPath id="clip0_40_1176">
<rect width="18" height="18" fill="white" transform="translate(0.689941 0.559998)"/>
</clipPath>
</defs>
</svg>
