<svg width="19" height="19" viewBox="0 0 19 19" fill="none" xmlns="http://www.w3.org/2000/svg">
<g clip-path="url(#clip0_40_1186)">
<path fill-rule="evenodd" clip-rule="evenodd" d="M6.72474 3.31128C6.8621 3.58992 6.74758 3.92716 6.46894 4.06452C4.42943 5.06997 3.03271 7.15501 3.03271 9.56001C3.03271 11.965 4.42943 14.05 6.46894 15.0555C6.74758 15.1928 6.8621 15.5301 6.72474 15.8087C6.58737 16.0873 6.25013 16.2019 5.97149 16.0645C3.56584 14.8786 1.90771 12.4132 1.90771 9.56001C1.90771 6.7068 3.56584 4.24143 5.97149 3.05548C6.25013 2.91811 6.58737 3.03264 6.72474 3.31128ZM13.2157 3.31128C13.3531 3.03264 13.6903 2.91811 13.9689 3.05548C16.3746 4.24143 18.0327 6.7068 18.0327 9.56001C18.0327 12.4132 16.3746 14.8786 13.9689 16.0645C13.6903 16.2019 13.3531 16.0873 13.2157 15.8087C13.0783 15.5301 13.1929 15.1928 13.4715 15.0555C15.511 14.05 16.9077 11.965 16.9077 9.56001C16.9077 7.15501 15.511 5.06997 13.4715 4.06452C13.1929 3.92716 13.0783 3.58992 13.2157 3.31128ZM7.41956 6.22212C7.60617 6.47049 7.5561 6.82311 7.30773 7.00971C6.53242 7.59222 6.03271 8.51766 6.03271 9.56001C6.03271 10.6024 6.53242 11.5278 7.30773 12.1103C7.5561 12.2969 7.60617 12.6495 7.41956 12.8979C7.23296 13.1463 6.88034 13.1963 6.63197 13.0097C5.58601 12.2239 4.90771 10.9711 4.90771 9.56001C4.90771 8.14896 5.58601 6.89613 6.63197 6.11028C6.88034 5.92368 7.23296 5.97375 7.41956 6.22212ZM12.5209 6.22212C12.7075 5.97375 13.0601 5.92368 13.3085 6.11028C14.3544 6.89613 15.0327 8.14896 15.0327 9.56001C15.0327 10.9711 14.3544 12.2239 13.3085 13.0097C13.0601 13.1963 12.7075 13.1463 12.5209 12.8979C12.3343 12.6495 12.3843 12.2969 12.6327 12.1103C13.408 11.5278 13.9077 10.6024 13.9077 9.56001C13.9077 8.51766 13.408 7.59222 12.6327 7.00971C12.3843 6.82311 12.3343 6.47049 12.5209 6.22212ZM9.03271 9.56001C9.03271 9.04221 9.45241 8.62251 9.97021 8.62251C10.488 8.62251 10.9077 9.04221 10.9077 9.56001C10.9077 10.0777 10.488 10.4975 9.97021 10.4975C9.45241 10.4975 9.03271 10.0777 9.03271 9.56001ZM9.97021 7.4975C8.83111 7.4975 7.90771 8.42091 7.90771 9.56001C7.90771 10.6991 8.83111 11.6225 9.97021 11.6225C11.1093 11.6225 12.0327 10.6991 12.0327 9.56001C12.0327 8.42091 11.1093 7.4975 9.97021 7.4975Z" fill="#212529"/>
</g>
<defs>
<clipPath id="clip0_40_1186">
<rect width="18" height="18" fill="white" transform="translate(0.970215 0.559998)"/>
</clipPath>
</defs>
</svg>
