<svg width="19" height="19" viewBox="0 0 19 19" fill="none" xmlns="http://www.w3.org/2000/svg">
<g clip-path="url(#clip0_40_1195)">
<path d="M2.28027 4.31L7.53027 2.06L12.0303 4.31L16.7575 2.28425C16.8146 2.25979 16.8768 2.24987 16.9387 2.2554C17.0005 2.26093 17.06 2.28173 17.1118 2.31593C17.1637 2.35013 17.2062 2.39666 17.2356 2.45135C17.265 2.50603 17.2803 2.56716 17.2803 2.62925V14.81L12.0303 17.06L7.53027 14.81L2.80302 16.8357C2.74596 16.8602 2.68371 16.8701 2.62187 16.8646C2.56003 16.8591 2.50053 16.8383 2.44871 16.8041C2.39689 16.7699 2.35438 16.7233 2.32498 16.6686C2.29558 16.614 2.28022 16.5528 2.28027 16.4907V4.31ZM12.7803 15.1062L15.7803 13.8207V4.33475L12.7803 5.62025V15.1062ZM11.2803 15.008V5.612L8.28027 4.112V13.508L11.2803 15.008ZM6.78027 13.4997V4.01375L3.78027 5.29925V14.7852L6.78027 13.4997Z" fill="#212529"/>
</g>
<defs>
<clipPath id="clip0_40_1195">
<rect width="18" height="18" fill="white" transform="translate(0.780273 0.559998)"/>
</clipPath>
</defs>
</svg>
