<svg width="25" height="24" viewBox="0 0 25 24" fill="none" xmlns="http://www.w3.org/2000/svg">
<path opacity="0.5" d="M18.5298 10.79V14.79C18.5298 15.05 18.5198 15.3 18.4898 15.54C18.2598 18.24 16.6698 19.58 13.7398 19.58H13.3398C13.0898 19.58 12.8498 19.7 12.6998 19.9L11.4998 21.5C10.9698 22.21 10.1098 22.21 9.5798 21.5L8.37979 19.9C8.24979 19.73 7.9598 19.58 7.7398 19.58H7.33981C4.14981 19.58 2.5498 18.79 2.5498 14.79V10.79C2.5498 7.86001 3.89981 6.27001 6.58981 6.04001C6.82981 6.01001 7.07981 6 7.33981 6H13.7398C16.9298 6 18.5298 7.60001 18.5298 10.79Z" fill="#252525"/>
<path d="M10.54 14C9.98004 14 9.54004 13.55 9.54004 13C9.54004 12.45 9.99004 12 10.54 12C11.09 12 11.54 12.45 11.54 13C11.54 13.55 11.1 14 10.54 14Z" fill="#252525"/>
<path d="M14.04 14C13.48 14 13.04 13.55 13.04 13C13.04 12.45 13.49 12 14.04 12C14.59 12 15.04 12.45 15.04 13C15.04 13.55 14.59 14 14.04 14Z" fill="#252525"/>
<path d="M7.0498 14C6.4898 14 6.0498 13.55 6.0498 13C6.0498 12.45 6.4998 12 7.0498 12C7.5998 12 8.0498 12.45 8.0498 13C8.0498 13.55 7.5998 14 7.0498 14Z" fill="#252525"/>
<path d="M22.5289 6.79001V10.79C22.5289 13.73 21.1789 15.31 18.4889 15.54C18.5189 15.3 18.5289 15.05 18.5289 14.79V10.79C18.5289 7.60001 16.9289 6 13.7389 6H7.33887C7.07887 6 6.82887 6.01001 6.58887 6.04001C6.81887 3.35001 8.40887 2 11.3389 2H17.7389C20.9289 2 22.5289 3.60001 22.5289 6.79001Z" fill="#252525"/>
</svg>
