<svg width="28" height="28" viewBox="0 0 28 28" fill="none" xmlns="http://www.w3.org/2000/svg">
<g opacity="0.8">
<path opacity="0.4" d="M23.9165 11.8883H20.5448C17.7798 11.8883 15.5282 9.63665 15.5282 6.87165V3.49998C15.5282 2.85831 15.0032 2.33331 14.3615 2.33331H9.41484C5.8215 2.33331 2.9165 4.66665 2.9165 8.83165V19.1683C2.9165 23.3333 5.8215 25.6666 9.41484 25.6666H18.5848C22.1782 25.6666 25.0832 23.3333 25.0832 19.1683V13.055C25.0832 12.4133 24.5582 11.8883 23.9165 11.8883Z" fill="#525252"/>
<path d="M18.4331 2.57889C17.9548 2.10056 17.1265 2.42723 17.1265 3.09223V7.16389C17.1265 8.86723 18.5731 10.2789 20.3348 10.2789C21.4431 10.2906 22.9831 10.2906 24.3015 10.2906C24.9665 10.2906 25.3165 9.50889 24.8498 9.04223C23.1698 7.35056 20.1598 4.30556 18.4331 2.57889Z" fill="#525252"/>
<path d="M15.75 16.0417H8.75C8.27167 16.0417 7.875 15.645 7.875 15.1667C7.875 14.6884 8.27167 14.2917 8.75 14.2917H15.75C16.2283 14.2917 16.625 14.6884 16.625 15.1667C16.625 15.645 16.2283 16.0417 15.75 16.0417Z" fill="#525252"/>
<path d="M13.4167 20.7083H8.75C8.27167 20.7083 7.875 20.3116 7.875 19.8333C7.875 19.355 8.27167 18.9583 8.75 18.9583H13.4167C13.895 18.9583 14.2917 19.355 14.2917 19.8333C14.2917 20.3116 13.895 20.7083 13.4167 20.7083Z" fill="#525252"/>
</g>
</svg>
