<svg width="59" height="58" viewBox="0 0 59 58" fill="none" xmlns="http://www.w3.org/2000/svg">
<g filter="url(#filter0_ddd_40_1678)">
<rect x="5.5" y="4" width="48" height="48" rx="16" fill="white"/>
<path d="M31.3335 20.2966C31.3335 19.654 30.8128 19.1333 30.1702 19.1333H28.831C28.1875 19.1333 27.6668 19.654 27.6668 20.2966C27.6668 20.8264 27.3038 21.2811 26.8097 21.4754C26.7318 21.5066 26.6539 21.5396 26.5778 21.5726C26.0911 21.7834 25.5127 21.7192 25.1368 21.3443C24.9187 21.1263 24.6229 21.0039 24.3146 21.0039C24.0062 21.0039 23.7105 21.1263 23.4923 21.3443L22.5445 22.2921C22.3265 22.5103 22.2041 22.806 22.2041 23.1144C22.2041 23.4228 22.3265 23.7185 22.5445 23.9366C22.9203 24.3125 22.9845 24.89 22.7718 25.3776C22.7384 25.4544 22.7063 25.5317 22.6756 25.6096C22.4812 26.1036 22.0266 26.4666 21.4967 26.4666C20.8542 26.4666 20.3335 26.9873 20.3335 27.6299V28.9701C20.3335 29.6126 20.8542 30.1333 21.4967 30.1333C22.0266 30.1333 22.4812 30.4963 22.6756 30.9904C22.7067 31.0683 22.7397 31.1462 22.7718 31.2223C22.9836 31.7091 22.9194 32.2875 22.5445 32.6633C22.3265 32.8814 22.2041 33.1772 22.2041 33.4856C22.2041 33.7939 22.3265 34.0897 22.5445 34.3078L23.4923 35.2556C23.7105 35.4736 24.0062 35.5961 24.3146 35.5961C24.6229 35.5961 24.9187 35.4736 25.1368 35.2556C25.5127 34.8798 26.0902 34.8156 26.5778 35.0274C26.6539 35.0613 26.7318 35.0934 26.8097 35.1246C27.3038 35.3189 27.6668 35.7736 27.6668 36.3034C27.6668 36.946 28.1875 37.4666 28.8301 37.4666H30.1702C30.8128 37.4666 31.3335 36.946 31.3335 36.3034C31.3335 35.7736 31.6965 35.3189 32.1906 35.1236C32.2685 35.0934 32.3464 35.0613 32.4225 35.0283C32.9092 34.8156 33.4877 34.8807 33.8626 35.2556C33.9706 35.3637 34.0989 35.4494 34.24 35.5079C34.3812 35.5664 34.5325 35.5965 34.6853 35.5965C34.8381 35.5965 34.9894 35.5664 35.1306 35.5079C35.2717 35.4494 35.4 35.3637 35.508 35.2556L36.4558 34.3078C36.6738 34.0897 36.7962 33.7939 36.7962 33.4856C36.7962 33.1772 36.6738 32.8814 36.4558 32.6633C36.08 32.2875 36.0158 31.71 36.2276 31.2223C36.2615 31.1462 36.2936 31.0683 36.3247 30.9904C36.5191 30.4963 36.9737 30.1333 37.5036 30.1333C38.1462 30.1333 38.6668 29.6126 38.6668 28.9701V27.6308C38.6668 26.9882 38.1462 26.4676 37.5036 26.4676C36.9737 26.4676 36.5191 26.1046 36.3238 25.6105C36.2931 25.5326 36.261 25.4553 36.2276 25.3786C36.0167 24.8918 36.0809 24.3134 36.4558 23.9376C36.6738 23.7194 36.7962 23.4237 36.7962 23.1153C36.7962 22.8069 36.6738 22.5112 36.4558 22.2931L35.508 21.3452C35.2899 21.1272 34.9941 21.0048 34.6857 21.0048C34.3774 21.0048 34.0816 21.1272 33.8635 21.3452C33.4877 21.7211 32.9102 21.7852 32.4225 21.5735C32.3458 21.5397 32.2684 21.5073 32.1906 21.4763C31.6965 21.2811 31.3335 20.8255 31.3335 20.2966Z" stroke="#212529" stroke-width="1.83333" stroke-linecap="round" stroke-linejoin="round"/>
<path d="M33.1668 28.3C33.1668 29.2724 32.7805 30.2051 32.0929 30.8927C31.4053 31.5803 30.4726 31.9666 29.5002 31.9666C28.5277 31.9666 27.5951 31.5803 26.9074 30.8927C26.2198 30.2051 25.8335 29.2724 25.8335 28.3C25.8335 27.3275 26.2198 26.3949 26.9074 25.7072C27.5951 25.0196 28.5277 24.6333 29.5002 24.6333C30.4726 24.6333 31.4053 25.0196 32.0929 25.7072C32.7805 26.3949 33.1668 27.3275 33.1668 28.3Z" stroke="#212529" stroke-width="1.83333" stroke-linecap="round" stroke-linejoin="round"/>
</g>
<defs>
<filter id="filter0_ddd_40_1678" x="0.5" y="0" width="58" height="58" filterUnits="userSpaceOnUse" color-interpolation-filters="sRGB">
<feFlood flood-opacity="0" result="BackgroundImageFix"/>
<feColorMatrix in="SourceAlpha" type="matrix" values="0 0 0 0 0 0 0 0 0 0 0 0 0 0 0 0 0 0 127 0" result="hardAlpha"/>
<feOffset dy="1"/>
<feGaussianBlur stdDeviation="2.5"/>
<feComposite in2="hardAlpha" operator="out"/>
<feColorMatrix type="matrix" values="0 0 0 0 0 0 0 0 0 0 0 0 0 0 0 0 0 0 0.12 0"/>
<feBlend mode="normal" in2="BackgroundImageFix" result="effect1_dropShadow_40_1678"/>
<feColorMatrix in="SourceAlpha" type="matrix" values="0 0 0 0 0 0 0 0 0 0 0 0 0 0 0 0 0 0 127 0" result="hardAlpha"/>
<feOffset dy="2"/>
<feGaussianBlur stdDeviation="1"/>
<feComposite in2="hardAlpha" operator="out"/>
<feColorMatrix type="matrix" values="0 0 0 0 0 0 0 0 0 0 0 0 0 0 0 0 0 0 0.14 0"/>
<feBlend mode="normal" in2="effect1_dropShadow_40_1678" result="effect2_dropShadow_40_1678"/>
<feColorMatrix in="SourceAlpha" type="matrix" values="0 0 0 0 0 0 0 0 0 0 0 0 0 0 0 0 0 0 127 0" result="hardAlpha"/>
<feMorphology radius="2" operator="erode" in="SourceAlpha" result="effect3_dropShadow_40_1678"/>
<feOffset dy="3"/>
<feGaussianBlur stdDeviation="0.5"/>
<feComposite in2="hardAlpha" operator="out"/>
<feColorMatrix type="matrix" values="0 0 0 0 0 0 0 0 0 0 0 0 0 0 0 0 0 0 0.2 0"/>
<feBlend mode="normal" in2="effect2_dropShadow_40_1678" result="effect3_dropShadow_40_1678"/>
<feBlend mode="normal" in="SourceGraphic" in2="effect3_dropShadow_40_1678" result="shape"/>
</filter>
</defs>
</svg>
