<svg width="25" height="25" viewBox="0 0 25 25" fill="none" xmlns="http://www.w3.org/2000/svg">
<path opacity="0.4" d="M17.7991 8.22001C17.7291 8.21001 17.6591 8.21001 17.5891 8.22001C16.0391 8.17001 14.8091 6.90001 14.8091 5.34001C14.8091 3.75001 16.0991 2.45001 17.6991 2.45001C19.2891 2.45001 20.5891 3.74001 20.5891 5.34001C20.5791 6.90001 19.3491 8.17001 17.7991 8.22001Z" fill="#6C757D"/>
<path opacity="0.4" d="M21.0616 15.1504C19.9416 15.9004 18.3716 16.1804 16.9216 15.9904C17.3016 15.1704 17.5016 14.2604 17.5116 13.3004C17.5116 12.3004 17.2916 11.3504 16.8716 10.5204C18.3516 10.3204 19.9216 10.6004 21.0516 11.3504C22.6316 12.3904 22.6316 14.1004 21.0616 15.1504Z" fill="#6C757D"/>
<path opacity="0.4" d="M6.70845 8.22001C6.77845 8.21001 6.84846 8.21001 6.91846 8.22001C8.46846 8.17001 9.69846 6.90001 9.69846 5.34001C9.69846 3.75001 8.40846 2.45001 6.80846 2.45001C5.21846 2.45001 3.91846 3.74001 3.91846 5.34001C3.92846 6.90001 5.15845 8.17001 6.70845 8.22001Z" fill="#6C757D"/>
<path opacity="0.4" d="M6.82111 13.3006C6.82111 14.2706 7.03111 15.1906 7.41111 16.0206C6.00111 16.1706 4.53111 15.8706 3.45111 15.1606C1.87111 14.1106 1.87111 12.4006 3.45111 11.3506C4.52111 10.6306 6.03111 10.3406 7.45111 10.5006C7.04111 11.3406 6.82111 12.2906 6.82111 13.3006Z" fill="#6C757D"/>
<path d="M12.3908 16.32C12.3108 16.31 12.2208 16.31 12.1308 16.32C10.2908 16.26 8.8208 14.75 8.8208 12.89C8.8208 10.99 10.3508 9.45001 12.2608 9.45001C14.1608 9.45001 15.7008 10.99 15.7008 12.89C15.7008 14.75 14.2408 16.26 12.3908 16.32Z" fill="#6C757D"/>
<path d="M9.1408 18.3906C7.6308 19.4006 7.6308 21.0606 9.1408 22.0606C10.8608 23.2106 13.6808 23.2106 15.4008 22.0606C16.9108 21.0506 16.9108 19.3906 15.4008 18.3906C13.6908 17.2406 10.8708 17.2406 9.1408 18.3906Z" fill="#6C757D"/>
</svg>
