<svg width="25" height="25" viewBox="0 0 25 25" fill="none" xmlns="http://www.w3.org/2000/svg">
<path d="M22.7161 14.3486V16.6386C22.7161 20.2786 20.5461 22.4486 16.9061 22.4486H8.52612C5.97612 22.4486 4.13612 21.3786 3.27612 19.4786L3.38612 19.3986L8.30612 16.0986C9.10612 15.5586 10.2361 15.6186 10.9461 16.2386L11.2861 16.5186C12.0661 17.1886 13.3261 17.1886 14.1061 16.5186L18.2661 12.9486C19.0461 12.2786 20.3061 12.2786 21.0861 12.9486L22.7161 14.3486Z" fill="#D83738"/>
<path opacity="0.4" d="M21.6875 8.45001H18.7475C17.4775 8.45001 16.7175 7.69001 16.7175 6.42001V3.48001C16.7175 3.08001 16.7975 2.74001 16.9375 2.45001C16.9275 2.45001 16.9175 2.45001 16.9075 2.45001H8.52753C4.88753 2.45001 2.71753 4.62001 2.71753 8.26001V16.64C2.71753 17.73 2.90753 18.68 3.27753 19.48L3.38753 19.4L8.30753 16.1C9.10753 15.56 10.2375 15.62 10.9475 16.24L11.2875 16.52C12.0675 17.19 13.3275 17.19 14.1075 16.52L18.2675 12.95C19.0475 12.28 20.3075 12.28 21.0875 12.95L22.7175 14.35V8.26001C22.7175 8.25001 22.7175 8.24001 22.7175 8.23001C22.4275 8.37001 22.0875 8.45001 21.6875 8.45001Z" fill="#D83738"/>
<path d="M9.71862 10.8311C11.033 10.8311 12.0986 9.76555 12.0986 8.45111C12.0986 7.13668 11.033 6.07111 9.71862 6.07111C8.40419 6.07111 7.33862 7.13668 7.33862 8.45111C7.33862 9.76555 8.40419 10.8311 9.71862 10.8311Z" fill="#D83738"/>
<path d="M21.6875 1.45001H18.7475C17.4775 1.45001 16.7175 2.21001 16.7175 3.48001V6.42001C16.7175 7.69001 17.4775 8.45001 18.7475 8.45001H21.6875C22.9575 8.45001 23.7175 7.69001 23.7175 6.42001V3.48001C23.7175 2.21001 22.9575 1.45001 21.6875 1.45001ZM22.6275 5.38001C22.5275 5.48001 22.3775 5.55001 22.2175 5.56001H20.8075L20.8175 6.95001C20.8075 7.12001 20.7475 7.26001 20.6275 7.38001C20.5275 7.48001 20.3775 7.55001 20.2175 7.55001C19.8875 7.55001 19.6175 7.28001 19.6175 6.95001V5.55001L18.2175 5.56001C17.8875 5.56001 17.6175 5.28001 17.6175 4.95001C17.6175 4.62001 17.8875 4.35001 18.2175 4.35001L19.6175 4.36001V2.96001C19.6175 2.63001 19.8875 2.35001 20.2175 2.35001C20.5475 2.35001 20.8175 2.63001 20.8175 2.96001L20.8075 4.35001H22.2175C22.5475 4.35001 22.8175 4.62001 22.8175 4.95001C22.8075 5.12001 22.7375 5.26001 22.6275 5.38001Z" fill="#D83738"/>
</svg>
