<svg width="19" height="19" viewBox="0 0 19 19" fill="none" xmlns="http://www.w3.org/2000/svg">
<path d="M14.77 17.06H4.27002C3.67328 17.06 3.10099 16.8229 2.67903 16.401C2.25707 15.979 2.02002 15.4067 2.02002 14.81V2.81C2.02002 2.61109 2.09904 2.42032 2.23969 2.27967C2.38034 2.13902 2.57111 2.06 2.77002 2.06H13.27C13.4689 2.06 13.6597 2.13902 13.8004 2.27967C13.941 2.42032 14.02 2.61109 14.02 2.81V11.81H17.02V14.81C17.02 15.4067 16.783 15.979 16.361 16.401C15.9391 16.8229 15.3668 17.06 14.77 17.06ZM14.02 13.31V14.81C14.02 15.0089 14.099 15.1997 14.2397 15.3403C14.3803 15.481 14.5711 15.56 14.77 15.56C14.9689 15.56 15.1597 15.481 15.3004 15.3403C15.441 15.1997 15.52 15.0089 15.52 14.81V13.31H14.02ZM12.52 15.56V3.56H3.52002V14.81C3.52002 15.0089 3.59904 15.1997 3.73969 15.3403C3.88034 15.481 4.07111 15.56 4.27002 15.56H12.52ZM5.02002 5.81H11.02V7.31H5.02002V5.81ZM5.02002 8.81H11.02V10.31H5.02002V8.81ZM5.02002 11.81H8.77002V13.31H5.02002V11.81Z" fill="white"/>
</svg>
