<svg width="28" height="28" viewBox="0 0 28 28" fill="none" xmlns="http://www.w3.org/2000/svg">
<g opacity="0.8">
<path opacity="0.4" d="M19.6235 2.33331H8.37687C5.89187 2.33331 3.87354 4.36331 3.87354 6.83665V23.275C3.87354 25.375 5.37853 26.2616 7.22187 25.2466L12.9152 22.085C13.5219 21.7466 14.5019 21.7466 15.0969 22.085L20.7902 25.2466C22.6335 26.2733 24.1385 25.3866 24.1385 23.275V6.83665C24.1269 4.36331 22.1085 2.33331 19.6235 2.33331Z" fill="#525252"/>
<path d="M14.0008 11.9935C12.8108 11.9935 11.6209 11.7835 10.4892 11.3751C10.0342 11.2117 9.80086 10.7101 9.96419 10.2551C10.1392 9.80006 10.6409 9.56673 11.0959 9.73006C12.9741 10.4067 15.0391 10.4067 16.9175 9.73006C17.3725 9.56673 17.8741 9.80006 18.0375 10.2551C18.2008 10.7101 17.9675 11.2117 17.5125 11.3751C16.3808 11.7835 15.1908 11.9935 14.0008 11.9935Z" fill="#525252"/>
</g>
</svg>
