<svg width="28" height="28" viewBox="0 0 28 28" fill="none" xmlns="http://www.w3.org/2000/svg">
<g opacity="0.8">
<path opacity="0.4" d="M15.1667 3.79169H8.16667C4.17667 3.79169 2.625 5.34335 2.625 9.33335V18.6667C2.625 21.35 4.08333 24.2084 8.16667 24.2084H15.1667C19.1567 24.2084 20.7083 22.6567 20.7083 18.6667V9.33335C20.7083 5.34335 19.1567 3.79169 15.1667 3.79169Z" fill="#525252"/>
<path d="M13.4155 13.2768C14.6268 13.2768 15.6088 12.2948 15.6088 11.0835C15.6088 9.87212 14.6268 8.89014 13.4155 8.89014C12.2041 8.89014 11.2222 9.87212 11.2222 11.0835C11.2222 12.2948 12.2041 13.2768 13.4155 13.2768Z" fill="#525252"/>
<path d="M25.2589 7.19848C24.7805 6.95348 23.7772 6.67348 22.4122 7.63015L20.6855 8.84348C20.6972 9.00681 20.7089 9.15848 20.7089 9.33348V18.6668C20.7089 18.8418 20.6855 18.9935 20.6855 19.1568L22.4122 20.3701C23.1355 20.8835 23.7655 21.0468 24.2672 21.0468C24.6989 21.0468 25.0372 20.9301 25.2589 20.8135C25.7372 20.5685 26.5422 19.9035 26.5422 18.2351V9.77681C26.5422 8.10848 25.7372 7.44348 25.2589 7.19848Z" fill="#525252"/>
</g>
</svg>
