<svg width="25" height="25" viewBox="0 0 25 25" fill="none" xmlns="http://www.w3.org/2000/svg">
<path opacity="0.4" d="M15.9726 3.45001H8.01255C4.56255 3.45001 2.49255 5.51001 2.49255 8.97001V16.92C2.49255 20.39 4.56255 22.45 8.01255 22.45H15.9626C19.4226 22.45 21.4826 20.39 21.4826 16.93V8.97001C21.4926 5.51001 19.4226 3.45001 15.9726 3.45001Z" fill="#D83738"/>
<path d="M21.512 3.42833C19.722 1.62833 17.972 1.58833 16.132 3.42833L15.002 4.54833C14.902 4.64833 14.872 4.78833 14.912 4.91833C15.612 7.36833 17.572 9.32833 20.022 10.0283C20.052 10.0383 20.102 10.0383 20.132 10.0383C20.232 10.0383 20.332 9.99833 20.402 9.92833L21.512 8.80833C22.422 7.89833 22.872 7.02833 22.872 6.13833C22.872 5.23833 22.422 4.34833 21.512 3.42833Z" fill="#D83738"/>
<path d="M18.3517 10.8698C18.0817 10.7398 17.8217 10.6098 17.5817 10.4598C17.3817 10.3399 17.1817 10.2099 16.9917 10.0699C16.8317 9.96986 16.6517 9.81986 16.4717 9.66986C16.4517 9.65986 16.3917 9.60986 16.3117 9.52986C16.0017 9.27986 15.6717 8.93986 15.3617 8.56986C15.3417 8.54986 15.2817 8.48986 15.2317 8.39986C15.1317 8.28986 14.9817 8.09986 14.8517 7.88986C14.7417 7.74986 14.6117 7.54986 14.4917 7.33986C14.3417 7.08986 14.2117 6.83986 14.0917 6.57986C13.9617 6.29986 13.8617 6.03986 13.7717 5.78986L8.39168 11.1698C8.04168 11.5198 7.70168 12.1798 7.63168 12.6698L7.20168 15.6498C7.11168 16.2798 7.28168 16.8698 7.67168 17.2598C8.00168 17.5898 8.45168 17.7598 8.95168 17.7598C9.06168 17.7598 9.17168 17.7498 9.28168 17.7398L12.2517 17.3198C12.7417 17.2498 13.4017 16.9198 13.7517 16.5598L19.1317 11.1798C18.8817 11.0998 18.6317 10.9898 18.3517 10.8698Z" fill="#D83738"/>
</svg>
