<svg width="28" height="28" viewBox="0 0 28 28" fill="none" xmlns="http://www.w3.org/2000/svg">
<g opacity="0.8">
<path opacity="0.4" d="M24.9327 13.2876V20.2759C24.9327 23.4959 22.3194 26.1093 19.0994 26.1093H8.90267C5.68267 26.1093 3.06934 23.4959 3.06934 20.2759V13.3693C3.956 14.3259 5.216 14.8743 6.581 14.8743C8.051 14.8743 9.46267 14.1393 10.3493 12.9609C11.1427 14.1393 12.496 14.8743 14.001 14.8743C15.4944 14.8743 16.8244 14.1743 17.6294 13.0076C18.5277 14.1626 19.916 14.8743 21.3627 14.8743C22.7744 14.8743 24.0577 14.3026 24.9327 13.2876Z" fill="#525252"/>
<path d="M17.4876 1.45831H10.4876L9.62426 10.045C9.55426 10.8383 9.67092 11.585 9.96259 12.2616C10.6393 13.8483 12.226 14.875 13.9993 14.875C15.796 14.875 17.3476 13.8716 18.0476 12.2733C18.2576 11.7716 18.386 11.1883 18.3976 10.5933V10.3716L17.4876 1.45831Z" fill="#525252"/>
<path opacity="0.6" d="M26.0862 9.64831L25.7479 6.41665C25.2579 2.89331 23.6596 1.45831 20.2412 1.45831H15.7612L16.6246 10.2083C16.6362 10.325 16.6479 10.4533 16.6479 10.675C16.7179 11.2816 16.9046 11.8416 17.1846 12.3433C18.0246 13.8833 19.6579 14.875 21.3612 14.875C22.9129 14.875 24.3129 14.1866 25.1879 12.9733C25.8879 12.04 26.2029 10.8616 26.0862 9.64831Z" fill="#525252"/>
<path opacity="0.6" d="M7.68792 1.45831C4.25793 1.45831 2.67126 2.89331 2.16959 6.45165L1.85459 9.65998C1.73792 10.9083 2.07626 12.1216 2.81126 13.0666C3.69792 14.2216 5.06292 14.875 6.57959 14.875C8.28292 14.875 9.91626 13.8833 10.7446 12.3666C11.0479 11.8416 11.2463 11.235 11.3046 10.605L12.2146 1.46998H7.68792V1.45831Z" fill="#525252"/>
<path d="M13.2408 19.4369C11.7591 19.5885 10.6392 20.8485 10.6392 22.3419V26.1102H17.3474V22.7502C17.3591 20.3119 15.9241 19.1569 13.2408 19.4369Z" fill="#525252"/>
</g>
</svg>
