<svg width="28" height="28" viewBox="0 0 28 28" fill="none" xmlns="http://www.w3.org/2000/svg">
<g opacity="0.8">
<path d="M6.00879 25.6666C5.53046 25.6666 5.13379 25.27 5.13379 24.7916V3.20831C5.13379 2.72998 5.53046 2.33331 6.00879 2.33331C6.48712 2.33331 6.88379 2.72998 6.88379 3.20831V24.7916C6.88379 25.27 6.48712 25.6666 6.00879 25.6666Z" fill="#525252"/>
<path opacity="0.4" d="M21.0228 14.3843L19.5994 12.961C19.2611 12.6693 19.0628 12.2376 19.0511 11.7593C19.0278 11.2343 19.2378 10.7093 19.6228 10.3243L21.0228 8.92426C22.2361 7.71094 22.6911 6.54427 22.3061 5.6226C21.9328 4.7126 20.7778 4.21094 19.0744 4.21094H6.00779C5.76279 4.22259 5.56445 4.42094 5.56445 4.66594V18.666C5.56445 18.911 5.76279 19.1093 6.00779 19.1093H19.0744C20.7544 19.1093 21.8861 18.596 22.2711 17.6743C22.6561 16.741 22.2128 15.586 21.0228 14.3843Z" fill="#525252"/>
</g>
</svg>
