<svg width="28" height="28" viewBox="0 0 28 28" fill="none" xmlns="http://www.w3.org/2000/svg">
<path opacity="0.4" d="M11.7474 3.28986L3.66234 9.76484C2.75234 10.4882 2.16901 12.0166 2.36734 13.1599L3.91901 22.4465C4.19901 24.1031 5.78566 25.4449 7.46566 25.4449H20.5324C22.2007 25.4449 23.799 24.0915 24.079 22.4465L25.6307 13.1599C25.8174 12.0166 25.234 10.4882 24.3357 9.76484L16.2507 3.3015C15.0024 2.29817 12.984 2.29819 11.7474 3.28986Z" fill="#D83738"/>
<path d="M14.0002 18.0833C15.611 18.0833 16.9168 16.7775 16.9168 15.1667C16.9168 13.5558 15.611 12.25 14.0002 12.25C12.3893 12.25 11.0835 13.5558 11.0835 15.1667C11.0835 16.7775 12.3893 18.0833 14.0002 18.0833Z" fill="#D83738"/>
</svg>
