<svg width="19" height="19" viewBox="0 0 19 19" fill="none" xmlns="http://www.w3.org/2000/svg">
<g clip-path="url(#clip0_40_1181)">
<path d="M15.6602 10.31C14.4017 10.31 13.2234 10.655 12.2154 11.2542C13.113 12.3032 13.8096 13.5086 14.2704 14.81H15.6602V10.31ZM12.6632 14.81C11.1932 11.2865 7.71616 8.81 3.66016 8.81V14.81H12.6632ZM3.66016 7.31C6.53266 7.31 9.15241 8.38625 11.1407 10.157C12.483 9.27576 14.0544 8.80745 15.6602 8.81V2.81H16.4162C16.8272 2.81 17.1602 3.14375 17.1602 3.55475V15.5652C17.1588 15.7622 17.08 15.9507 16.9408 16.0901C16.8016 16.2294 16.6131 16.3084 16.4162 16.31H2.90416C2.70677 16.3098 2.51753 16.2312 2.37802 16.0916C2.23852 15.952 2.16016 15.7626 2.16016 15.5652V3.55475C2.16153 3.35778 2.24033 3.16926 2.37954 3.02991C2.51875 2.89056 2.70719 2.81157 2.90416 2.81H5.16016V1.31H6.66016V4.31H3.66016V7.31ZM14.1602 1.31V4.31H8.16016V2.81H12.6602V1.31H14.1602ZM13.0352 8.06C12.7368 8.06 12.4506 7.94147 12.2397 7.73049C12.0287 7.51951 11.9102 7.23337 11.9102 6.935C11.9102 6.63663 12.0287 6.35048 12.2397 6.1395C12.4506 5.92852 12.7368 5.81 13.0352 5.81C13.3335 5.81 13.6197 5.92852 13.8307 6.1395C14.0416 6.35048 14.1602 6.63663 14.1602 6.935C14.1602 7.23337 14.0416 7.51951 13.8307 7.73049C13.6197 7.94147 13.3335 8.06 13.0352 8.06Z" fill="#212529"/>
</g>
<defs>
<clipPath id="clip0_40_1181">
<rect width="18" height="18" fill="white" transform="translate(0.660156 0.559998)"/>
</clipPath>
</defs>
</svg>
