<svg width="19" height="19" viewBox="0 0 19 19" fill="none" xmlns="http://www.w3.org/2000/svg">
<g clip-path="url(#clip0_40_1190)">
<path d="M4.5712 16.31L4.5562 16.325L4.54045 16.31H3.1942C2.99681 16.3098 2.80757 16.2312 2.66806 16.0916C2.52856 15.952 2.4502 15.7626 2.4502 15.5652V3.55475C2.45157 3.35778 2.53037 3.16926 2.66958 3.02991C2.80879 2.89056 2.99723 2.81157 3.1942 2.81H16.7062C17.1172 2.81 17.4502 3.14375 17.4502 3.55475V15.5652C17.4488 15.7622 17.37 15.9507 17.2308 16.0901C17.0916 16.2294 16.9032 16.3084 16.7062 16.31H4.5712ZM15.9502 11.81V4.31H3.9502V14.81L11.4502 7.31L15.9502 11.81ZM15.9502 13.931L11.4502 9.431L6.0712 14.81H15.9502V13.931ZM6.9502 8.81C6.55237 8.81 6.17084 8.65196 5.88953 8.37066C5.60823 8.08935 5.4502 7.70782 5.4502 7.31C5.4502 6.91217 5.60823 6.53064 5.88953 6.24934C6.17084 5.96803 6.55237 5.81 6.9502 5.81C7.34802 5.81 7.72955 5.96803 8.01086 6.24934C8.29216 6.53064 8.4502 6.91217 8.4502 7.31C8.4502 7.70782 8.29216 8.08935 8.01086 8.37066C7.72955 8.65196 7.34802 8.81 6.9502 8.81Z" fill="#212529"/>
</g>
<defs>
<clipPath id="clip0_40_1190">
<rect width="18" height="18" fill="white" transform="translate(0.950195 0.559998)"/>
</clipPath>
</defs>
</svg>
