<svg width="41" height="41" viewBox="0 0 41 41" fill="none" xmlns="http://www.w3.org/2000/svg">
<rect x="0.5" y="0.339844" width="40" height="40" rx="20" fill="black" fill-opacity="0.06"/>
<g clip-path="url(#clip0_40_1390)">
<path d="M28.36 16.47C28.36 16.89 28.33 17.3 28.28 17.69C27.82 17.49 27.32 17.38 26.79 17.38C25.57 17.38 24.49 17.97 23.82 18.87C23.14 17.97 22.06 17.38 20.84 17.38C18.79 17.38 17.13 19.05 17.13 21.12C17.13 23.8 18.55 25.85 20.13 27.24C20.08 27.27 20.03 27.28 19.98 27.3C19.68 27.41 19.18 27.41 18.88 27.3C16.29 26.41 10.5 22.73 10.5 16.47C10.5 13.71 12.72 11.48 15.46 11.48C17.09 11.48 18.53 12.26 19.43 13.47C20.34 12.26 21.78 11.48 23.4 11.48C26.14 11.48 28.36 13.71 28.36 16.47Z" stroke="#212529" stroke-width="1.5" stroke-linecap="round" stroke-linejoin="round"/>
<path d="M30.4999 21.1199C30.4999 25.7999 26.1699 28.5599 24.2299 29.2199C23.9999 29.2999 23.6299 29.2999 23.3999 29.2199C22.5699 28.9399 21.2999 28.2699 20.1299 27.2399C18.5499 25.8499 17.1299 23.7999 17.1299 21.1199C17.1299 19.0499 18.7899 17.3799 20.8399 17.3799C22.0599 17.3799 23.1399 17.9699 23.8199 18.8699C24.4899 17.9699 25.5699 17.3799 26.7899 17.3799C27.3199 17.3799 27.8199 17.4899 28.2799 17.6899C29.5899 18.2699 30.4999 19.5799 30.4999 21.1199Z" stroke="#212529" stroke-width="1.5" stroke-linecap="round" stroke-linejoin="round"/>
</g>
<path d="M13.5269 9.60645C13.6206 10.1455 13.5503 10.6611 13.3159 11.083C13.3863 11.6455 13.2222 12.2314 12.8941 12.6533C12.8706 13.9658 12.0738 14.8799 10.2691 14.8799C10.105 14.8799 9.9175 14.8799 9.73 14.8799C7.33938 14.8799 6.61281 13.9893 5.55813 13.9658C5.48781 14.2705 5.18313 14.5049 4.855 14.5049H3.355C2.93313 14.5049 2.605 14.1768 2.605 13.7549V8.12988C2.605 7.73145 2.93313 7.37988 3.355 7.37988H5.65188C6.09719 7.00488 6.73 5.97363 7.26906 5.43457C7.59719 5.10645 7.50344 2.87988 8.95656 2.87988C10.2925 2.87988 11.1831 3.62988 11.1831 5.34082C11.1831 5.78613 11.0894 6.1377 10.9722 6.44238H11.8394C12.9644 6.44238 13.855 7.40332 13.855 8.43457C13.855 8.87988 13.7378 9.25488 13.5269 9.60645ZM12.0738 10.8721C12.5894 10.4033 12.5191 9.67676 12.1909 9.3252C12.4253 9.3252 12.73 8.87988 12.73 8.45801C12.7066 8.0127 12.3316 7.56738 11.8394 7.56738H9.40188C9.40188 6.67676 10.0581 6.25488 10.0581 5.34082C10.0581 4.77832 10.0581 4.00488 8.95656 4.00488C8.51125 4.4502 8.72219 5.5752 8.06594 6.23145C7.43313 6.86426 6.51906 8.50488 5.83938 8.50488H5.605V12.8877C6.84719 12.8877 7.94875 13.7549 9.61281 13.7549H10.5034C11.3238 13.7549 11.9331 13.3564 11.7456 12.2314C12.0972 12.0205 12.3784 11.3643 12.0738 10.8721ZM4.6675 13.0049C4.6675 12.7002 4.40969 12.4424 4.105 12.4424C3.77688 12.4424 3.5425 12.7002 3.5425 13.0049C3.5425 13.333 3.77688 13.5674 4.105 13.5674C4.40969 13.5674 4.6675 13.333 4.6675 13.0049Z" fill="#212529"/>
<defs>
<clipPath id="clip0_40_1390">
<rect width="24" height="24" fill="white" transform="translate(8.5 8.37988)"/>
</clipPath>
</defs>
</svg>
