<svg width="19" height="19" viewBox="0 0 19 19" fill="none" xmlns="http://www.w3.org/2000/svg">
<path d="M13.9801 5.37994C13.5226 5.37994 13.1026 5.11744 12.8926 4.71244L12.3526 3.62494C12.0076 2.94244 11.1076 2.37994 10.3426 2.37994H8.62513C7.85261 2.37994 6.95261 2.94244 6.60761 3.62494L6.06761 4.71244C5.85761 5.11744 5.43761 5.37994 4.98011 5.37994C3.35261 5.37994 2.06261 6.75244 2.16761 8.37244L2.55761 14.5674C2.64761 16.1124 3.48011 17.3799 5.55011 17.3799H13.4101C15.4801 17.3799 16.3051 16.1124 16.4026 14.5674L16.7926 8.37244C16.8976 6.75244 15.6076 5.37994 13.9801 5.37994ZM8.35513 6.31744H10.6051C10.9126 6.31744 11.1676 6.57244 11.1676 6.87994C11.1676 7.18744 10.9126 7.44244 10.6051 7.44244H8.35513C8.04763 7.44244 7.79261 7.18744 7.79261 6.87994C7.79261 6.57244 8.04763 6.31744 8.35513 6.31744ZM9.48013 14.4699C8.08513 14.4699 6.94511 13.3374 6.94511 11.9349C6.94511 10.5324 8.07763 9.39994 9.48013 9.39994C10.8826 9.39994 12.0151 10.5324 12.0151 11.9349C12.0151 13.3374 10.8751 14.4699 9.48013 14.4699Z" fill="white"/>
</svg>
